<svg width="60" height="53" viewBox="0 0 60 53" fill="none" xmlns="http://www.w3.org/2000/svg">
<path d="M30.0001 41.8241C27.1156 41.8241 24.7696 44.1705 24.7696 47.0546C24.7696 49.9391 27.1156 52.2852 30.0001 52.2852C32.8842 52.2852 35.2307 49.9391 35.2307 47.0546C35.2307 44.1705 32.8842 41.8241 30.0001 41.8241Z" fill="#B2BBC6"/>
<path d="M30.0002 0C19.2394 0 9.26277 3.50928 0.902521 10.146C0.146543 10.7485 0.0262218 11.8455 0.621469 12.5965L3.04968 15.6535C3.6531 16.4131 4.74098 16.5103 5.49878 15.905C12.4987 10.3163 21.2181 6.95363 30.8719 6.95363C40.0572 6.95363 48.427 9.98481 55.2321 15.0905C55.9872 15.6571 57.056 15.52 57.6435 14.7808L59.3784 12.5965C59.975 11.845 59.8529 10.7481 59.0978 10.146C50.7376 3.50928 40.7609 0 30.0002 0Z" fill="#B2BBC6"/>
<path d="M30.0006 13.943C22.4154 13.943 15.2915 16.4203 9.39939 21.1087C8.66248 21.6953 8.56395 22.7964 9.14966 23.5342L11.5733 26.5854C12.1849 27.3554 13.2869 27.439 14.0547 26.8246C18.6732 23.1301 24.5108 20.9017 30.8723 20.9017C36.7885 20.9017 42.2665 22.8132 46.722 26.0501C47.4766 26.5985 48.5304 26.456 49.1112 25.725L50.851 23.5342C51.4472 22.7828 51.3255 21.6858 50.57 21.0838C44.6843 16.4117 37.5722 13.943 30.0006 13.943Z" fill="#B2BBC6"/>
<path d="M18.0211 32.0736C17.2983 32.6534 17.2311 33.7444 17.8073 34.4705L20.2237 37.5153C20.8126 38.2572 21.9027 38.4147 22.6351 37.8136C24.8831 35.9692 27.7426 34.85 30.8719 34.85C33.5748 34.85 36.0629 35.7041 38.1411 37.1248C38.8657 37.6197 39.8637 37.4049 40.4094 36.7175L42.1929 34.4705C42.7682 33.7449 42.7005 32.6525 41.9782 32.0731C35.1662 26.6119 24.8331 26.6119 18.0211 32.0736Z" fill="#B2BBC6"/>
</svg>
