<svg width="13" height="14" viewBox="0 0 13 14" fill="none" xmlns="http://www.w3.org/2000/svg">
<path d="M8.45294 4.91965C8.37434 4.84105 8.29227 4.76799 8.2074 4.70009L6.78507 6.12242C6.88367 6.16938 6.9761 6.23345 7.05762 6.31497C7.4423 6.69965 7.44232 7.32559 7.05762 7.71029L3.74897 11.0189C3.36427 11.4036 2.73835 11.4036 2.35365 11.0189C1.96895 10.6342 1.96897 10.0083 2.35365 9.6236L2.54986 9.42739C2.14078 8.69403 2.00653 7.84752 2.14683 7.0398L0.958331 8.2283C-0.195746 9.38238 -0.195746 11.2602 0.958331 12.4142C2.11241 13.5683 3.99019 13.5683 5.14427 12.4142L8.45292 9.10559C9.607 7.95151 9.607 6.0737 8.45294 4.91965Z" fill="#16B9FD"/>
<path d="M11.6441 0.865558C10.49 -0.288519 8.61225 -0.288519 7.45818 0.865558L4.14955 4.17419C2.99547 5.32824 2.99547 7.20605 4.14955 8.36012C4.22747 8.43805 4.30969 8.51106 4.39528 8.57949L5.8174 7.15737C5.7188 7.11041 5.62636 7.04634 5.54484 6.96483C5.16139 6.58138 5.16025 5.95833 5.5412 5.57334L8.85347 2.26088C9.23817 1.87618 9.86409 1.8762 10.2488 2.26088C10.6335 2.64555 10.6335 3.2715 10.2488 3.6562L11.6441 5.05149C12.7982 3.89742 12.7982 2.01963 11.6441 0.865558Z" fill="#16B9FD"/>
</svg>
