<svg width="11" height="13" viewBox="0 0 11 13" fill="none" xmlns="http://www.w3.org/2000/svg">
<path d="M5.49989 0C2.90383 0 0.791786 2.11204 0.791786 4.70808C0.791786 7.92985 5.00508 12.6596 5.18447 12.8594C5.35296 13.047 5.64713 13.0467 5.81532 12.8594C5.99471 12.6596 10.208 7.92985 10.208 4.70808C10.208 2.11204 8.09593 0 5.49989 0ZM5.49989 7.07685C4.19375 7.07685 3.13115 6.01423 3.13115 4.70808C3.13115 3.40194 4.19377 2.33934 5.49989 2.33934C6.80601 2.33934 7.86861 3.40196 7.86861 4.70811C7.86861 6.01425 6.80601 7.07685 5.49989 7.07685Z" fill="#16B9FD"/>
</svg>
